<svg width="57" height="56" viewBox="0 0 57 56" fill="none" xmlns="http://www.w3.org/2000/svg">
<path d="M49.7333 25.7833L30.7167 6.76665C30.1333 6.18331 29.3167 5.83331 28.5 5.83331C27.6833 5.83331 26.8667 6.18331 26.2833 6.76665L22.2 10.85L26.9833 15.6333C27.45 15.4 27.9167 15.2833 28.5 15.2833C30.4833 15.2833 32 16.8 32 18.7833C32 19.3666 31.8833 19.8333 31.65 20.3L36.3167 24.9666C36.7833 24.7333 37.25 24.6166 37.8333 24.6166C39.8167 24.6166 41.3333 26.1333 41.3333 28.1166C41.3333 30.1 39.8167 31.6166 37.8333 31.6166C35.85 31.6166 34.3333 30.1 34.3333 28.1166C34.3333 27.5333 34.45 27.0666 34.6833 26.6L30.0167 21.9333C29.9 21.9333 29.7833 22.05 29.6667 22.05V34.1833C31.0667 34.65 32 35.9333 32 37.45C32 39.4333 30.4833 40.95 28.5 40.95C26.5167 40.95 25 39.4333 25 37.45C25 35.9333 25.9333 34.65 27.3333 34.1833V21.9333C25.9333 21.4666 25 20.1833 25 18.6666C25 18.0833 25.1167 17.6166 25.35 17.15L20.5667 12.3666L7.26666 25.7833C6.68333 26.3666 6.33333 27.1833 6.33333 28C6.33333 28.8166 6.68333 29.6333 7.26666 30.2166L26.2833 49.2333C26.8667 49.8167 27.6833 50.1666 28.5 50.1666C29.3167 50.1666 30.1333 49.8167 30.7167 49.2333L49.7333 30.2166C50.3167 29.6333 50.6667 28.8166 50.6667 28C50.6667 27.1833 50.3167 26.3666 49.7333 25.7833Z" fill="black"/>
</svg>
