<svg width="57" height="56" viewBox="0 0 57 56" fill="none" xmlns="http://www.w3.org/2000/svg">
<path d="M0.5 56V0H56.5V56H0.5Z" fill="white"/>
<path d="M37.1147 41.9176C38.1911 43.666 39.3609 45.3414 41.8389 45.3414C43.9202 45.3414 45.0122 44.3069 45.0122 42.8758C45.0122 41.1631 43.8829 40.5549 41.5931 39.5578L40.3378 39.0227C36.7149 37.4858 34.3053 35.56 34.3053 31.4923C34.3053 27.7434 37.1753 24.8905 41.66 24.8905C44.8536 24.8905 47.148 25.9965 48.8031 28.8929L44.8924 31.3927C44.0322 29.8558 43.102 29.2507 41.66 29.2507C40.1884 29.2507 39.2567 30.1794 39.2567 31.3927C39.2567 32.8922 40.19 33.4989 42.3445 34.4276L43.5998 34.9627C47.8698 36.7811 50.2778 38.6385 50.2778 42.8136C50.2778 47.3122 46.7249 49.7778 41.9556 49.7778C37.2905 49.7778 34.6413 47.4367 33.1667 44.5387L37.1147 41.9176ZM19.092 42.0451C19.8791 43.4545 21.0753 44.5387 22.7958 44.5387C24.4416 44.5387 25.3889 43.8885 25.3889 41.3607V24.8889H30.5736V42.1571C30.5736 47.3947 27.5356 49.7778 23.0991 49.7778C19.0904 49.7778 16.1971 47.0618 15.018 44.5387L19.092 42.0451Z" fill="black"/>
</svg>
