<svg width="57" height="56" viewBox="0 0 57 56" fill="none" xmlns="http://www.w3.org/2000/svg">
<path fill-rule="evenodd" clip-rule="evenodd" d="M32.9546 0.929016C32.5717 0.929016 32.2161 1.01397 31.8878 1.12723C32.5854 1.60862 32.9683 2.24575 33.1598 2.96782C33.1735 3.06693 33.2008 3.13772 33.2145 3.23682C33.2282 3.32178 33.2419 3.40673 33.2419 3.49168C33.2966 4.73761 32.9273 4.89335 32.6674 5.62959C32.2708 6.5782 32.3802 7.5976 32.8589 8.41879C32.8999 8.51789 32.9546 8.63116 33.023 8.73027C32.5033 5.1482 35.3891 4.61019 35.9225 3.49168C35.9636 2.51475 35.184 1.86347 34.5685 1.4104C33.9804 1.04228 33.447 0.929016 32.9546 0.929016ZM37.3039 1.73604C37.2492 2.06168 37.2902 1.97673 37.2766 2.14664C37.2629 2.2599 37.2629 2.40149 37.2493 2.51475C37.2219 2.62802 37.1945 2.74128 37.1535 2.85456C37.1262 2.96782 37.0851 3.08109 37.0441 3.19435C36.9894 3.30762 36.9484 3.40673 36.8937 3.51999C36.8526 3.57665 36.8253 3.63326 36.7842 3.6899C36.7569 3.73237 36.7295 3.77485 36.7022 3.81732C36.6338 3.91643 36.5654 4.01554 36.497 4.10049C36.415 4.18544 36.3466 4.28454 36.2508 4.35534V4.36952C36.1688 4.44031 36.0867 4.52526 35.991 4.59605C35.7038 4.82258 35.3755 4.99248 35.0746 5.20486C34.9789 5.27565 34.8831 5.33228 34.8011 5.41723C34.7053 5.48802 34.6233 5.55881 34.5412 5.64377C34.4455 5.72871 34.3771 5.81367 34.295 5.91278C34.2266 5.99773 34.1446 6.09683 34.0899 6.19594C34.0215 6.29505 33.9531 6.39416 33.8984 6.49327C33.8437 6.60653 33.8027 6.70564 33.7479 6.81891C33.7069 6.93217 33.6659 7.03128 33.6385 7.14455C33.5975 7.27197 33.5701 7.38524 33.5428 7.49851C33.5291 7.55517 33.5291 7.62593 33.5155 7.68257C33.5017 7.73922 33.5017 7.79583 33.4881 7.85247C33.4881 7.96573 33.4744 8.09316 33.4744 8.20642C33.4744 8.29138 33.4744 8.37633 33.4881 8.46128C33.4881 8.57454 33.5018 8.68781 33.5292 8.81523C33.5429 8.9285 33.5702 9.04177 33.5975 9.15504C33.6386 9.2683 33.6659 9.38157 33.707 9.49483C33.7343 9.56563 33.7753 9.63642 33.8027 9.69305L30.657 8.43296C30.1236 8.27722 29.6039 8.13564 29.0705 8.00821C28.7833 7.93742 28.496 7.86663 28.2088 7.79583C27.3882 7.62593 26.5539 7.49851 25.7196 7.41356C25.6923 7.41356 25.6786 7.39938 25.6512 7.39938C24.8306 7.31444 24.0237 7.27196 23.2031 7.27196C22.6013 7.27196 21.9995 7.30025 21.4114 7.34275C20.5771 7.39941 19.7428 7.51265 18.9085 7.65423C18.7033 7.68253 18.4982 7.72503 18.293 7.7675C17.869 7.85245 17.4587 7.95156 17.0621 8.05067C16.8569 8.10733 16.6518 8.16394 16.4466 8.22057C16.2415 8.30552 16.05 8.40463 15.8585 8.48958C15.7081 8.56037 15.5576 8.63116 15.4072 8.70195C15.3798 8.71613 15.3525 8.71613 15.3388 8.73025C15.202 8.80104 15.0789 8.85767 14.9558 8.92847C14.9148 8.94264 14.8875 8.95676 14.8601 8.97094C14.7097 9.04173 14.5592 9.12668 14.4361 9.19747C14.3404 9.23995 14.2446 9.29658 14.1626 9.33906C14.1215 9.36735 14.0668 9.39571 14.0395 9.40985C13.9164 9.48064 13.7933 9.55143 13.6839 9.62223C13.5608 9.69302 13.4514 9.7638 13.3556 9.83459C13.2599 9.90539 13.1642 9.96202 13.0821 10.0328C13.0684 10.047 13.0548 10.047 13.0411 10.0611C12.959 10.1178 12.8633 10.1885 12.7812 10.2593C12.7812 10.2593 12.7675 10.2735 12.7539 10.2876C12.6855 10.3443 12.6171 10.4009 12.5487 10.4575C12.5214 10.4717 12.494 10.5 12.4667 10.5142C12.3983 10.5708 12.3299 10.6416 12.2615 10.6982C12.2478 10.7265 12.2205 10.7407 12.2068 10.7549C12.1247 10.8398 12.0427 10.9106 11.9606 10.9956C11.9469 10.9956 11.9469 11.0098 11.9333 11.0239C11.8512 11.0947 11.7691 11.1796 11.6871 11.2646C11.6734 11.2787 11.6734 11.2929 11.6597 11.2929C11.5914 11.3637 11.523 11.4345 11.4546 11.5194C11.4272 11.5477 11.3862 11.5761 11.3588 11.6043C11.2905 11.6893 11.2084 11.7742 11.1263 11.8592C11.1126 11.8875 11.0853 11.9017 11.0716 11.93C10.9622 12.0433 10.8665 12.1565 10.757 12.2698C10.7433 12.284 10.7297 12.2981 10.716 12.3123C10.4972 12.553 10.2647 12.7936 10.0185 13.006C9.77229 13.2326 9.51243 13.4449 9.25257 13.629C8.97903 13.8272 8.71917 13.9971 8.43195 14.167C8.15841 14.3227 7.87119 14.4643 7.5703 14.5918C7.28308 14.7192 6.98219 14.8325 6.6813 14.9316C6.10687 15.059 5.51876 15.2997 5.01271 15.3421C4.90329 15.3421 4.7802 15.3704 4.67079 15.3846C4.54769 15.4129 4.43828 15.4413 4.32886 15.4696C4.21945 15.512 4.11003 15.5545 4.00061 15.597C3.8912 15.6395 3.78179 15.6961 3.67237 15.7527C3.57663 15.8235 3.46722 15.8802 3.37147 15.951C3.27574 16.0217 3.18 16.1067 3.09793 16.1916C3.0022 16.2624 2.90646 16.3616 2.8244 16.4465C2.74233 16.5456 2.66027 16.6306 2.59189 16.7297C2.5235 16.8429 2.44144 16.942 2.38673 17.0553C2.31835 17.1544 2.24997 17.2677 2.19525 17.3809C2.14052 17.5084 2.08584 17.6216 2.04481 17.7491C2.00378 17.8623 1.96275 17.9898 1.92172 18.1172C1.89438 18.2305 1.86699 18.3437 1.85333 18.457C1.85333 18.4712 1.83963 18.4853 1.83963 18.4995C1.8123 18.6269 1.8123 18.7968 1.7986 18.8817C1.78491 18.9809 1.77127 19.0658 1.77127 19.1649C1.77127 19.2216 1.77127 19.2923 1.78497 19.349C1.79867 19.4481 1.8123 19.533 1.8397 19.618C1.86703 19.7029 1.89443 19.7879 1.93543 19.8728V19.887C1.97646 19.972 2.03118 20.0569 2.08588 20.1419C2.14061 20.2268 2.1953 20.3118 2.26368 20.3967C2.33207 20.4675 2.41413 20.5524 2.49619 20.6232C2.57825 20.7082 2.66032 20.779 2.75605 20.8498C3.0843 21.1471 3.16636 21.2462 3.59035 21.4727C3.65873 21.5152 3.72712 21.5435 3.80918 21.586C3.82288 21.586 3.83652 21.6002 3.85021 21.6002C3.85021 21.6285 3.85021 21.6427 3.86391 21.671C3.87761 21.7843 3.90495 21.8975 3.9323 22.0108C3.95963 22.1382 4.00069 22.2515 4.04172 22.3506C4.08275 22.4355 4.1101 22.5205 4.15113 22.6054C4.16483 22.6337 4.17847 22.6621 4.19216 22.6762C4.24689 22.7895 4.30158 22.8886 4.35628 22.9877C4.42467 23.0868 4.49306 23.1859 4.56144 23.285C4.62982 23.37 4.71188 23.4691 4.79395 23.554C4.87601 23.639 4.95807 23.7098 5.05381 23.7947C5.05381 23.7947 5.06751 23.8089 5.08115 23.8089C5.16321 23.8797 5.24527 23.9505 5.32733 24.0071C5.42307 24.0779 5.51881 24.1346 5.62822 24.1912C5.72397 24.2479 5.83338 24.3045 5.94279 24.3469C6.02486 24.3894 6.12059 24.4177 6.21633 24.4461C6.23003 24.4603 6.24367 24.4603 6.27106 24.4744C6.32579 24.4886 6.39415 24.5026 6.44886 24.5168C6.40783 25.2814 6.39413 26.0034 6.50359 26.2583C6.62668 26.5415 7.22847 25.6778 7.83025 24.6867C7.74819 25.6637 7.69348 26.8105 7.83025 27.1503C7.9807 27.5042 8.80132 26.3999 9.51252 25.1823C19.2095 22.8603 28.0585 29.7979 28.9885 39.5955C28.8107 38.0664 26.9917 37.2169 26.1574 37.4292C25.7471 38.477 25.0496 39.822 23.928 40.6573C24.0238 39.7229 23.9828 38.7601 23.7913 37.8257C23.4904 39.1282 22.9023 40.3459 22.0953 41.3936C20.796 41.4927 19.4967 40.8414 18.8128 39.8645C18.7581 39.822 18.7445 39.737 18.7034 39.6804C18.6624 39.5813 18.6214 39.4822 18.594 39.3831C18.553 39.284 18.5256 39.1849 18.512 39.0858C18.4983 38.9867 18.4983 38.8875 18.4983 38.7743C18.4983 38.7035 18.4983 38.6327 18.4983 38.5619C18.512 38.4628 18.5393 38.3637 18.5666 38.2646C18.594 38.1655 18.6214 38.0664 18.6624 37.9673C18.7171 37.8681 18.7581 37.769 18.8265 37.6699C19.059 36.9903 19.059 36.4382 18.635 36.1125C18.553 36.0559 18.4709 36.0134 18.3752 35.9709C18.3204 35.9567 18.2521 35.9284 18.1974 35.9143C18.1563 35.9001 18.129 35.886 18.088 35.8718C17.9922 35.8435 17.8965 35.8151 17.8007 35.801C17.705 35.7727 17.6093 35.7585 17.5135 35.7585C17.4178 35.7443 17.3084 35.7302 17.2126 35.7302C17.1442 35.7302 17.0759 35.7444 17.0075 35.7444C16.8981 35.7444 16.8023 35.7586 16.7066 35.7869C16.6108 35.8011 16.5151 35.8152 16.4194 35.8435C16.3236 35.8718 16.2279 35.9002 16.1321 35.9427C16.0364 35.9851 15.9543 36.0276 15.8586 36.0701C15.7765 36.1126 15.6945 36.1692 15.5987 36.2117C12.412 38.3637 14.3131 43.4041 16.4877 44.8624C15.6671 45.0181 14.8328 45.2022 14.6003 45.3863C14.5866 45.4004 14.573 45.4146 14.573 45.4146C15.1611 45.7827 15.7766 46.0942 16.4194 46.3632C17.2947 46.6605 18.2247 46.9295 18.6351 47.0428V47.0569C19.7702 47.2976 20.9191 47.3826 22.0816 47.3118C28.1405 46.8729 33.1053 42.1015 34.008 35.8152C34.0353 35.9426 34.0627 36.0559 34.09 36.1833C34.1311 36.4382 34.1858 36.7072 34.2131 36.9762V36.9904C34.2404 37.1178 34.2541 37.2452 34.2678 37.3585V37.4152C34.2816 37.5426 34.2952 37.67 34.2952 37.7833C34.3089 37.939 34.3225 38.0948 34.3225 38.2505V38.477C34.3225 38.5478 34.3362 38.6328 34.3362 38.7036C34.3362 38.7885 34.3225 38.8735 34.3225 38.9584V39.1566C34.3225 39.2558 34.3088 39.3407 34.3088 39.4398C34.3088 39.4965 34.3088 39.5531 34.2951 39.6239C34.2951 39.723 34.2814 39.8221 34.2814 39.9354C34.2677 39.9778 34.2677 40.0203 34.2677 40.0628C34.254 40.1761 34.2404 40.2752 34.2267 40.3884C34.2267 40.4309 34.2267 40.4734 34.213 40.5159C34.1992 40.6574 34.1719 40.7849 34.1582 40.9264V40.9406V40.9548C34.1309 41.0822 34.1035 41.2238 34.0762 41.3512V41.3937C34.0488 41.5211 34.0214 41.6486 33.9941 41.776C33.9941 41.7902 33.9804 41.8185 33.9804 41.8326C33.9531 41.9601 33.9257 42.0875 33.8847 42.2149V42.2574C33.8437 42.399 33.8026 42.5264 33.7753 42.6538C33.7616 42.668 33.7616 42.6821 33.7616 42.6821C33.7205 42.8237 33.6795 42.9653 33.6385 43.1069C33.5838 43.2485 33.5427 43.3759 33.488 43.5175C33.4333 43.6591 33.3923 43.8006 33.3376 43.9281C33.2829 44.0697 33.2282 44.1971 33.1735 44.3387H33.1598C33.105 44.4661 33.0503 44.6077 32.9819 44.7351C32.9682 44.7776 32.9546 44.8059 32.9409 44.8342C32.9272 44.8484 32.9272 44.8625 32.9136 44.8767C32.0246 46.7314 30.7116 48.3596 29.0704 49.6339C28.9609 49.7047 28.8515 49.7896 28.7421 49.8746C28.7148 49.9029 28.6737 49.917 28.6464 49.9454C28.5506 50.0161 28.4549 50.0869 28.3455 50.1577L28.3865 50.2427H28.4002C28.5917 50.2144 28.7832 50.186 28.9746 50.1577H28.9883C29.3439 50.1011 29.6995 50.0303 30.0551 49.9595C30.1509 49.9453 30.2603 49.917 30.356 49.8887C30.4244 49.8745 30.4791 49.8604 30.5475 49.8463C30.6432 49.8321 30.739 49.8038 30.8347 49.7896C30.9168 49.7613 30.9989 49.7471 31.0809 49.7188C32.4486 49.379 33.7753 48.9118 35.0472 48.3596C32.8726 51.432 29.9594 53.9097 26.5538 55.5379C28.1267 55.4246 29.6995 55.1556 31.2177 54.7025C36.7295 53.0177 41.366 49.1808 44.1424 44.013C43.5816 47.2836 42.3234 50.3984 40.4633 53.1168C41.79 52.2107 43.0072 51.1629 44.1151 49.9736C47.1787 46.6606 49.1892 42.4556 49.8731 37.9391C50.3381 40.1761 50.4748 42.4839 50.2697 44.7634C60.1445 30.5059 51.0903 15.7246 47.3018 11.8311C47.2881 11.8028 47.2745 11.7886 47.2745 11.7603C47.2607 11.7745 47.2607 11.7745 47.2607 11.7886C47.2607 11.7744 47.2607 11.7744 47.247 11.7603C47.247 11.9302 47.2334 12.1001 47.2197 12.27C47.1787 12.5956 47.1377 12.9071 47.0829 13.2186C47.0146 13.5301 46.9325 13.8415 46.8504 14.153C46.7547 14.4504 46.6453 14.7618 46.5222 15.0592C46.3991 15.3423 46.2623 15.6397 46.1119 15.9228C45.9614 16.1918 45.7973 16.475 45.6195 16.7299C45.4417 16.9989 45.2502 17.2537 45.0587 17.4944C44.8536 17.7493 44.6348 17.9758 44.4159 18.2023C44.2792 18.3297 44.1561 18.443 44.0193 18.5563C43.9099 18.6554 43.8141 18.7403 43.7047 18.8394C43.4585 19.0377 43.2124 19.2217 42.9388 19.3916C42.679 19.5615 42.4054 19.7314 42.1319 19.873C41.8447 20.0146 41.5574 20.142 41.2702 20.2694C40.983 20.3827 40.6821 20.4818 40.3812 20.5668C40.0803 20.6517 39.7658 20.7225 39.4649 20.7791C39.1503 20.8358 38.8357 20.8641 38.5348 20.8924C38.316 20.9066 38.0972 20.9207 37.8783 20.9207C37.5638 20.9207 37.2492 20.8924 36.9483 20.8641C36.6337 20.8358 36.3192 20.7933 36.0183 20.7225C35.7037 20.6658 35.4028 20.5809 35.1019 20.4818H35.0882C35.3891 20.4535 35.69 20.4251 35.9909 20.3685C36.3055 20.3118 36.6064 20.2411 36.9073 20.1561C37.2082 20.0712 37.5091 19.9721 37.7963 19.8588C38.0972 19.7455 38.3844 19.604 38.6579 19.4624C38.9451 19.3208 39.205 19.165 39.4785 18.9951C39.7384 18.8111 39.9983 18.627 40.2444 18.4288C40.4906 18.2306 40.7231 18.0182 40.942 17.7917C41.1745 17.5793 41.3796 17.3386 41.5848 17.0979C41.7899 16.8431 41.9814 16.5882 42.1592 16.3334C42.1866 16.2909 42.2139 16.2343 42.2413 16.1918C42.378 15.9653 42.5148 15.7387 42.6379 15.5122C42.7884 15.229 42.9251 14.9459 43.0482 14.6485C43.1713 14.3512 43.2807 14.0539 43.3765 13.7424C43.4722 13.4451 43.5406 13.1336 43.609 12.8221C43.6637 12.4965 43.7184 12.185 43.7457 11.8735C43.7731 11.5479 43.8005 11.2222 43.8005 10.9107C43.8005 10.6842 43.7868 10.4577 43.7731 10.2311C43.7458 9.90549 43.7048 9.594 43.6637 9.28252C43.609 8.95688 43.5406 8.6454 43.4586 8.33391C43.3628 8.03659 43.2671 7.7251 43.1577 7.42778C43.0483 7.13045 42.9115 6.83312 42.7747 6.54996C42.6243 6.26679 42.4738 5.98362 42.3097 5.71462C42.1319 5.44561 41.9541 5.19076 41.7626 4.93591C41.5575 4.69521 41.3523 4.45452 41.1335 4.21383C41.0241 4.10057 40.901 3.97314 40.7779 3.85988C40.1624 3.36433 39.5196 2.8971 38.8768 2.47236C38.7811 2.4157 38.699 2.37325 38.6033 2.33077C38.1519 2.03345 37.7279 1.87762 37.3039 1.73604Z" fill="black"/>
</svg>
